<?xml version="1.0" encoding="utf-8"?>
<!-- Generator: Adobe Illustrator 24.0.1, SVG Export Plug-In . SVG Version: 6.00 Build 0)  -->
<svg version="1.1" xmlns="http://www.w3.org/2000/svg" xmlns:xlink="http://www.w3.org/1999/xlink" x="0px" y="0px"
	 viewBox="0 0 2475 1650" style="enable-background:new 0 0 2475 1650;" xml:space="preserve">
<style type="text/css">
	.st0{fill:#FFFFFF;}
	.st1{fill:#D8F2FB;}
	.st2{fill:#B3DFF2;}
	.st3{opacity:0.22;fill:#FFFFFF;}
	.st4{fill:#2F87CE;}
	.st5{fill:#48A4D8;}
	.st6{opacity:0.5;}
	.st7{fill:#1A5392;}
	.st8{fill:#FD6F61;}
	.st9{fill:#13427F;}
	.st10{fill:#FFCE45;}
	.st11{fill:#FFAC33;}
	.st12{fill:#0A223C;}
	.st13{fill:#0F2F46;}
	.st14{fill:#EF5552;}
</style>
<g id="Background">
	<g>
		<g>
			<rect class="st0" width="2475" height="1650"/>
		</g>
	</g>
</g>
<g id="Illustration">
	<g>
		<path class="st1" d="M1871,601.5c-22.47,19.91-37.74,48.13-57.06,70.71c-6.98,8.15-21.75,28.49-34.78,26.17
			c-17.94-3.19-21.58-28.87-22.85-43.5c-3.4-39-0.24-88.15,9.61-126.39c12.27-47.62,63.17-48.25,103.1-43.66
			c20.65,2.37,40.82,7.34,61.4,9.87c18.97,2.33,37.79,5.45,56.03,11.29c13.5,4.32,45.81,17.33,22.72,33.3
			c-17.14,11.86-40.69,15.97-60.14,22.87c-21.15,7.5-42.17,15.88-61.56,27.27C1881.52,592.93,1876.08,597.01,1871,601.5z"/>
		<path class="st1" d="M399.7,1041.93c-27.85-39.67-84.11-115.35-136.51-65.38c-37.64,35.9-26.3,110.59,8.4,145.4
			c39.9,40.02,221.68,62.35,158.61-33.86C422.9,1076.97,412.38,1059.99,399.7,1041.93z"/>
		<path class="st1" d="M480.53,1371.05c-7.59,0.03-32.13-36.4-37.59-42.94c-32.83-39.41,54.81-95.21,76.43-115.93
			c84.35-80.86-12.88-168.18-77.5-219.3c-77.3-61.15-184.45-162.67-147.54-274.78c36.57-111.09,167.11-44.67,237.37-16.79
			c40.04,15.89,120.03,54.52,164.19,43.76c84.62-20.61,4.44-71.67,26.02-169.16c16.09-72.69,10.21-151.65,33.71-222.59
			c13.4-40.45,46.05-76.89,83.03-97c233.09-126.74,642.23,1.41,729.91,267.08c26.66,80.77,42.66,156.89,113.03,211.15
			c51.91,40.03,133.31-22.07,176.3-48.23c71.3-43.38,146.03-106.99,234.58-101.44c80.27,5.03,115.69,80.35,118.96,151.52
			c4.51,98.15-18.08,198.28-50.31,290.08c-35.86,102.14-83.9,208.34-154.13,290.85c-19.07,22.4-51.82,52.53-83.63,52.59
			C1922.98,1369.94,480.61,1371.05,480.53,1371.05z"/>
		<g>
			<g>
				<path class="st2" d="M2262.33,1374.84c-98.69-48.37-177-57.62-230.59-56.97c-37.7,0.45-65.55,1.05-189.56,12.75
					c-141.2,13.33-178.69-6.75-339.73-10.2c-216.65-4.64-193.32,30.76-381.58,25.51c-247.06-6.89-262.78-67.17-420.97-35.71
					c-95.71,19.03-150.94,53.22-241.26,35.71c-36.63-7.1-80.71-16.82-142.79-7.65c-48.03,7.09-85.96,23.55-110.78,36.56
					c273.52,0.19,761.68,0.35,1035.2,0.35C1508.06,1375.19,1994.54,1375.03,2262.33,1374.84z"/>
			</g>
		</g>
		<g>
			<g>
				<path class="st2" d="M1774.42,1075.45h71.62c1.59,0,2.88,1.29,2.88,2.88v52.7c0,1.59,1.29,2.88,2.88,2.88h10.18
					c0.78,0,1.53-0.32,2.08-0.89c9.91-10.35,19.82-20.71,29.74-31.06c0.34-0.35,0.58-0.78,0.7-1.25c0.93-3.6,1.79-60.26,1.84-65.84
					c0.04-4.72-0.5-8.86-1.2-12.25c-0.37-1.78,1-3.44,2.82-3.44h62.34c1.82,0,3.17,1.66,2.82,3.44c-1.49,7.63-2.64,17-2.54,27.7
					c0.1,10.07,1.29,18.9,2.76,26.14c0.27,1.34,1.45,2.3,2.82,2.3h22.41c1.74,0,3.07,1.53,2.85,3.26c-0.37,2.91-0.64,6.04-0.75,9.37
					c-0.25,7.14,0.27,13.52,1.08,18.91c0.09,0.6,0.37,1.15,0.79,1.58c8.15,8.3,16.3,16.61,24.45,24.91
					c0.33,0.34,0.58,0.75,0.71,1.21c1.41,4.81,3.73,23.93,0.78,35.45c-0.47,1.83,0.89,3.61,2.78,3.61h17.63
					c1.97,0,3.37,1.94,2.72,3.8c-1.5,4.3-2.98,10.29-2.97,17.51c0.01,8.36,1.99,15.07,3.71,19.4c0.44,1.1,1.49,1.83,2.68,1.83h97.03
					c1.24,0,2.34,0.8,2.73,1.97c2.95,8.81,5.71,19.91,6.79,32.9c2,23.99-2.61,102.04-6.8,114.73c-0.39,1.18-1.49,1.97-2.73,1.98
					l-588.34,0.47l0-105.58l116.85-1.42l0-90.48l103.86-4.34L1774.42,1075.45z"/>
				<g>
					<path class="st3" d="M1980.35,1219.89h22.75c1.26-4.12,2.58-10.39,1.97-17.95c-0.32-3.99-1.11-7.43-1.97-10.22
						c-7.58,0-15.17,0-22.75,0c1.01,2.53,2.02,5.83,2.47,9.77C1983.75,1209.64,1981.78,1216.24,1980.35,1219.89z"/>
					<path class="st3" d="M1950.38,1219.89h22.75c1.18-2.78,2.77-7.44,2.88-13.41c0.13-6.68-1.65-11.88-2.88-14.76
						c-7.58,0-15.17,0-22.75,0c1.54,1.58,4.11,4.7,5.19,9.31C1957.9,1210.98,1951.21,1218.94,1950.38,1219.89z"/>
					<path class="st3" d="M2001.17,1260.44h22.75c1.26-4.12,2.58-10.39,1.97-17.95c-0.32-3.99-1.11-7.43-1.97-10.22
						c-7.58,0-15.17,0-22.75,0c1.01,2.53,2.02,5.83,2.47,9.77C2004.57,1250.19,2002.6,1256.8,2001.17,1260.44z"/>
					<path class="st3" d="M1954.47,1174.16h22.75c1.26-4.12,2.58-10.39,1.97-17.95c-0.32-3.99-1.11-7.43-1.97-10.22
						c-7.58,0-15.17,0-22.75,0c1.01,2.53,2.02,5.83,2.47,9.77C1957.86,1163.91,1955.89,1170.51,1954.47,1174.16z"/>
					<path class="st3" d="M1967.41,1259.48h22.75c1.26-4.12,2.58-10.39,1.97-17.95c-0.32-3.99-1.11-7.43-1.97-10.22
						c-7.58,0-15.17,0-22.75,0c1.01,2.53,2.02,5.83,2.47,9.77C1970.8,1249.23,1968.83,1255.83,1967.41,1259.48z"/>
					<path class="st3" d="M1937.43,1259.48h22.75c1.18-2.78,2.77-7.44,2.88-13.41c0.13-6.68-1.65-11.88-2.88-14.76
						c-7.58,0-15.17,0-22.75,0c1.54,1.58,4.11,4.7,5.19,9.31C1944.96,1250.56,1938.26,1258.52,1937.43,1259.48z"/>
					<path class="st3" d="M1722.2,1265.77h22.75c1.26-4.12,2.58-10.39,1.97-17.95c-0.32-3.99-1.11-7.43-1.97-10.22
						c-7.58,0-15.17,0-22.75,0c1.01,2.53,2.02,5.83,2.47,9.77C1725.59,1255.51,1723.62,1262.12,1722.2,1265.77z"/>
					<path class="st3" d="M1692.22,1265.77h22.75c1.18-2.78,2.77-7.44,2.88-13.41c0.13-6.68-1.65-11.88-2.88-14.76
						c-7.58,0-15.17,0-22.75,0c1.54,1.58,4.11,4.7,5.19,9.31C1699.75,1256.85,1693.05,1264.81,1692.22,1265.77z"/>
					<path class="st3" d="M1696.31,1220.04h22.75c1.26-4.12,2.58-10.39,1.97-17.95c-0.32-3.99-1.11-7.43-1.97-10.22
						c-7.58,0-15.17,0-22.75,0c1.01,2.53,2.02,5.83,2.47,9.77C1699.7,1209.79,1697.73,1216.39,1696.31,1220.04z"/>
					<path class="st3" d="M1709.25,1305.35h22.75c1.26-4.12,2.58-10.39,1.97-17.95c-0.32-3.99-1.11-7.43-1.97-10.22
						c-7.58,0-15.17,0-22.75,0c1.01,2.53,2.02,5.83,2.47,9.77C1712.65,1295.1,1710.68,1301.7,1709.25,1305.35z"/>
					<path class="st3" d="M1679.28,1305.35h22.75c1.18-2.78,2.77-7.44,2.88-13.41c0.13-6.68-1.65-11.88-2.88-14.76
						c-7.58,0-15.17,0-22.75,0c1.54,1.58,4.11,4.7,5.19,9.31C1686.8,1296.43,1680.11,1304.39,1679.28,1305.35z"/>
					<path class="st3" d="M1604.42,1355.9h22.75c1.26-4.12,2.58-10.39,1.97-17.95c-0.32-3.99-1.11-7.43-1.97-10.22
						c-7.58,0-15.17,0-22.75,0c1.01,2.53,2.02,5.83,2.47,9.77C1607.81,1345.65,1605.84,1352.25,1604.42,1355.9z"/>
					<path class="st3" d="M1574.44,1355.9h22.75c1.18-2.78,2.77-7.44,2.88-13.41c0.13-6.68-1.65-11.88-2.88-14.76
						c-7.58,0-15.17,0-22.75,0c1.54,1.58,4.11,4.7,5.19,9.31C1581.96,1346.98,1575.27,1354.94,1574.44,1355.9z"/>
					<path class="st3" d="M2067.56,1260.61h22.75c1.26-4.12,2.58-10.39,1.97-17.95c-0.32-3.99-1.11-7.43-1.97-10.22
						c-7.58,0-15.17,0-22.75,0c1.01,2.53,2.02,5.83,2.47,9.77C2070.95,1250.36,2068.98,1256.96,2067.56,1260.61z"/>
					<path class="st3" d="M2037.58,1260.61h22.75c1.18-2.78,2.77-7.44,2.88-13.41c0.13-6.68-1.65-11.88-2.88-14.76
						c-7.58,0-15.17,0-22.75,0c1.54,1.58,4.11,4.7,5.19,9.31C2045.11,1251.69,2038.42,1259.65,2037.58,1260.61z"/>
					<path class="st3" d="M2051.21,1360.31h22.75c1.26-4.12,2.58-10.39,1.97-17.95c-0.32-3.99-1.11-7.43-1.97-10.22
						c-7.58,0-15.17,0-22.75,0c1.01,2.53,2.02,5.83,2.47,9.77C2054.6,1350.06,2052.63,1356.66,2051.21,1360.31z"/>
					<path class="st3" d="M2021.23,1360.31h22.75c1.18-2.78,2.77-7.44,2.88-13.41c0.13-6.68-1.65-11.88-2.88-14.76
						c-7.58,0-15.17,0-22.75,0c1.54,1.58,4.11,4.7,5.19,9.31C2028.76,1351.39,2022.06,1359.35,2021.23,1360.31z"/>
				</g>
			</g>
		</g>
		<g>
			<g>
				<path class="st2" d="M1281.54,1075.45h71.62c1.59,0,2.88,1.29,2.88,2.88v52.7c0,1.59,1.29,2.88,2.88,2.88h10.18
					c0.78,0,1.53-0.32,2.08-0.89c9.91-10.35,19.82-20.71,29.74-31.06c0.34-0.35,0.58-0.78,0.7-1.25c0.93-3.6,1.79-60.26,1.84-65.84
					c0.04-4.72-0.5-8.86-1.2-12.25c-0.37-1.78,1-3.44,2.82-3.44h62.34c1.82,0,3.17,1.66,2.82,3.44c-1.49,7.63-2.64,17-2.54,27.7
					c0.1,10.07,1.29,18.9,2.76,26.14c0.27,1.34,1.45,2.3,2.82,2.3h22.41c1.74,0,3.07,1.53,2.85,3.26c-0.37,2.91-0.64,6.04-0.75,9.37
					c-0.25,7.14,0.27,13.52,1.08,18.91c0.09,0.6,0.37,1.15,0.79,1.58c8.15,8.3,16.3,16.61,24.45,24.91
					c0.33,0.34,0.58,0.75,0.71,1.21c1.41,4.81,3.73,23.93,0.78,35.45c-0.47,1.83,0.89,3.61,2.78,3.61H1546
					c1.97,0,3.37,1.94,2.72,3.8c-1.5,4.3-2.98,10.29-2.97,17.51c0.01,8.36,1.99,15.07,3.71,19.4c0.44,1.1,1.49,1.83,2.68,1.83h97.03
					c1.24,0,2.34,0.8,2.73,1.97c2.95,8.81,5.71,19.91,6.79,32.9c2,23.99-2.61,102.04-6.8,114.73c-0.39,1.18-1.49,1.97-2.73,1.98
					l-588.34,0.47l0-105.58l116.85-1.42l0-90.48l103.86-4.34L1281.54,1075.45z"/>
				<g>
					<path class="st3" d="M1487.47,1219.89h22.75c1.26-4.12,2.58-10.39,1.97-17.95c-0.32-3.99-1.11-7.43-1.97-10.22
						c-7.58,0-15.17,0-22.75,0c1.01,2.53,2.02,5.83,2.47,9.77C1490.87,1209.64,1488.9,1216.24,1487.47,1219.89z"/>
					<path class="st3" d="M1457.5,1219.89h22.75c1.18-2.78,2.77-7.44,2.88-13.41c0.13-6.68-1.65-11.88-2.88-14.76
						c-7.58,0-15.17,0-22.75,0c1.54,1.58,4.11,4.7,5.19,9.31C1465.02,1210.98,1458.33,1218.94,1457.5,1219.89z"/>
					<path class="st3" d="M1508.29,1260.44h22.75c1.26-4.12,2.58-10.39,1.97-17.95c-0.32-3.99-1.11-7.43-1.97-10.22
						c-7.58,0-15.17,0-22.75,0c1.01,2.53,2.02,5.83,2.47,9.77C1511.69,1250.19,1509.72,1256.8,1508.29,1260.44z"/>
					<path class="st3" d="M1461.58,1174.16h22.75c1.26-4.12,2.58-10.39,1.97-17.95c-0.32-3.99-1.11-7.43-1.97-10.22
						c-7.58,0-15.17,0-22.75,0c1.01,2.53,2.02,5.83,2.47,9.77C1464.98,1163.91,1463.01,1170.51,1461.58,1174.16z"/>
					<path class="st3" d="M1474.53,1259.48h22.75c1.26-4.12,2.58-10.39,1.97-17.95c-0.32-3.99-1.11-7.43-1.97-10.22
						c-7.58,0-15.17,0-22.75,0c1.01,2.53,2.02,5.83,2.47,9.77C1477.92,1249.23,1475.95,1255.83,1474.53,1259.48z"/>
					<path class="st3" d="M1444.55,1259.48h22.75c1.18-2.78,2.77-7.44,2.88-13.41c0.13-6.68-1.65-11.88-2.88-14.76
						c-7.58,0-15.17,0-22.75,0c1.54,1.58,4.11,4.7,5.19,9.31C1452.08,1250.56,1445.38,1258.52,1444.55,1259.48z"/>
					<path class="st3" d="M1229.32,1265.77h22.75c1.26-4.12,2.58-10.39,1.97-17.95c-0.32-3.99-1.11-7.43-1.97-10.22
						c-7.58,0-15.17,0-22.75,0c1.01,2.53,2.02,5.83,2.47,9.77C1232.71,1255.51,1230.74,1262.12,1229.32,1265.77z"/>
					<path class="st3" d="M1199.34,1265.77h22.75c1.18-2.78,2.77-7.44,2.88-13.41c0.13-6.68-1.65-11.88-2.88-14.76
						c-7.58,0-15.17,0-22.75,0c1.54,1.58,4.11,4.7,5.19,9.31C1206.87,1256.85,1200.17,1264.81,1199.34,1265.77z"/>
					<path class="st3" d="M1203.43,1220.04h22.75c1.26-4.12,2.58-10.39,1.97-17.95c-0.32-3.99-1.11-7.43-1.97-10.22
						c-7.58,0-15.17,0-22.75,0c1.01,2.53,2.02,5.83,2.47,9.77C1206.82,1209.79,1204.85,1216.39,1203.43,1220.04z"/>
					<path class="st3" d="M1216.37,1305.35h22.75c1.26-4.12,2.58-10.39,1.97-17.95c-0.32-3.99-1.11-7.43-1.97-10.22
						c-7.58,0-15.17,0-22.75,0c1.01,2.53,2.02,5.83,2.47,9.77C1219.77,1295.1,1217.8,1301.7,1216.37,1305.35z"/>
					<path class="st3" d="M1186.4,1305.35h22.75c1.18-2.78,2.77-7.44,2.88-13.41c0.13-6.68-1.65-11.88-2.88-14.76
						c-7.58,0-15.17,0-22.75,0c1.54,1.58,4.11,4.7,5.19,9.31C1193.92,1296.43,1187.23,1304.39,1186.4,1305.35z"/>
					<path class="st3" d="M1111.54,1355.9h22.75c1.26-4.12,2.58-10.39,1.97-17.95c-0.32-3.99-1.11-7.43-1.97-10.22
						c-7.58,0-15.17,0-22.75,0c1.01,2.53,2.02,5.83,2.47,9.77C1114.93,1345.65,1112.96,1352.25,1111.54,1355.9z"/>
					<path class="st3" d="M1081.56,1355.9h22.75c1.18-2.78,2.77-7.44,2.88-13.41c0.13-6.68-1.65-11.88-2.88-14.76
						c-7.58,0-15.17,0-22.75,0c1.54,1.58,4.11,4.7,5.19,9.31C1089.08,1346.98,1082.39,1354.94,1081.56,1355.9z"/>
					<path class="st3" d="M1574.68,1260.61h22.75c1.26-4.12,2.58-10.39,1.97-17.95c-0.32-3.99-1.11-7.43-1.97-10.22
						c-7.58,0-15.17,0-22.75,0c1.01,2.53,2.02,5.83,2.47,9.77C1578.07,1250.36,1576.1,1256.96,1574.68,1260.61z"/>
					<path class="st3" d="M1544.7,1260.61h22.75c1.18-2.78,2.77-7.44,2.88-13.41c0.13-6.68-1.65-11.88-2.88-14.76
						c-7.58,0-15.17,0-22.75,0c1.54,1.58,4.11,4.7,5.19,9.31C1552.23,1251.69,1545.53,1259.65,1544.7,1260.61z"/>
					<path class="st3" d="M1558.33,1360.31h22.75c1.26-4.12,2.58-10.39,1.97-17.95c-0.32-3.99-1.11-7.43-1.97-10.22
						c-7.58,0-15.17,0-22.75,0c1.01,2.53,2.02,5.83,2.47,9.77C1561.72,1350.06,1559.75,1356.66,1558.33,1360.31z"/>
					<path class="st3" d="M1528.35,1360.31h22.75c1.18-2.78,2.77-7.44,2.88-13.41c0.13-6.68-1.65-11.88-2.88-14.76
						c-7.58,0-15.17,0-22.75,0c1.54,1.58,4.11,4.7,5.19,9.31C1535.88,1351.39,1529.18,1359.35,1528.35,1360.31z"/>
				</g>
			</g>
		</g>
		<g>
			<g>
				<g>
					<g>
						<g>
							<polygon class="st4" points="1167.91,1045.21 994.78,1045.21 959.8,1340.43 1195.13,1340.43 							"/>
						</g>
						<g>
							<path class="st4" d="M1268.56,1336.17l-0.97-5.83c-2.45-14.71-237.02-19.34-251.94-19.34h-74.45
								c-13.15,0-24.64,8.84-28.37,21.45c-5.71,19.3,8.75,38.55,28.88,38.55h297.14C1257.46,1371,1271.61,1354.52,1268.56,1336.17z"
								/>
						</g>
						<polygon class="st5" points="1254.36,1045.21 1081.23,1045.21 1057.41,1340.43 1281.58,1340.43 						"/>
						<path class="st5" d="M1311.82,1305.4l-296.17,5.83c-13.15,0.22-24.64,8.95-28.37,21.57l0,0c-5.71,19.3,8.75,38.67,28.88,38.67
							h297.14c18.61,0,32.77-16.71,29.71-35.06l-0.97-5.83C1339.59,1315.85,1326.74,1305.15,1311.82,1305.4z"/>
					</g>
				</g>
				<g>
					<g>
						<g>
							<path class="st5" d="M1695,382.87v724.19c0,5.53-4.74,10.94-10.27,10.94H537.26c-12.73,0-23.26-8.98-27.26-20.71V398.73
								c1-9.95,6.43-17.99,14.54-22.04c0.29-0.16,0.7-0.3,1.01-0.43c0.39-0.18,0.84-0.34,1.24-0.5c2.78-1.1,5.85-1.68,9.08-1.82
								c0.45-0.02,0.94,0.05,1.4,0.05h1147.47C1690.26,374,1695,377.33,1695,382.87z"/>
							<path class="st2" d="M1665.21,1048.74H597.88c-2.26,0-4.09-1.83-4.09-4.09V409.3c0-2.26,1.83-4.09,4.09-4.09h1067.32
								c2.26,0,4.09,1.83,4.09,4.09v635.35C1669.3,1046.91,1667.47,1048.74,1665.21,1048.74z"/>
						</g>
						<path class="st4" d="M566,400.89v688.16c0,15.47-13.24,28.85-28.69,28.85h-0.05c-12.73,0-23.47-8.84-26.85-20.57
							c-0.54-1.84-1.02-3.77-1.18-5.73c-0.07-0.7-0.23-1.82-0.23-2.55V400.89c0-0.73,0.17-0.96,0.23-1.67
							c0.76-10.05,6.88-18.38,15.44-22.53c0.29-0.16,0.63-0.3,0.94-0.43c0.39-0.18,0.81-0.34,1.21-0.5
							c2.82-1.09,5.88-1.71,9.06-1.86c0.45-0.02,0.92,0.01,1.38,0.01h0.05C552.76,373.9,566,385.4,566,400.89z"/>
					</g>
				</g>
			</g>
			<g class="st6">
				<g>
					<g>
						<path class="st5" d="M1234,479.15c0,6.49-5.26,11.76-11.76,11.76H669.76c-6.49,0-11.76-5.26-11.76-11.76v-0.49
							c0-6.49,5.26-11.75,11.76-11.75h552.49c6.49,0,11.76,5.26,11.76,11.75V479.15z"/>
						<path class="st5" d="M1399,478.9c0,6.63-5.37,12-12,12h-112c-6.63,0-12-5.37-12-12l0,0c0-6.63,5.37-12,12-12h112
							C1393.63,466.9,1399,472.28,1399,478.9L1399,478.9z"/>
						<path class="st5" d="M794,533.9c0,6.63-5.37,12-12,12H670c-6.63,0-12-5.37-12-12l0,0c0-6.63,5.37-12,12-12h112
							C788.63,521.9,794,527.28,794,533.9L794,533.9z"/>
						<path class="st5" d="M960,533.9c0,6.63-5.37,12-12,12H836c-6.63,0-12-5.37-12-12l0,0c0-6.63,5.37-12,12-12h112
							C954.63,521.9,960,527.28,960,533.9L960,533.9z"/>
						<path class="st5" d="M1154,596.9c0,6.63-5.37,12-12,12h-112c-6.63,0-12-5.37-12-12l0,0c0-6.63,5.37-12,12-12h112
							C1148.63,584.9,1154,590.28,1154,596.9L1154,596.9z"/>
						<path class="st5" d="M1360,533.9c0,6.63-5.37,12-12,12h-305c-6.63,0-12-5.37-12-12l0,0c0-6.63,5.37-12,12-12h305
							C1354.63,521.9,1360,527.28,1360,533.9L1360,533.9z"/>
						<path class="st5" d="M988,596.9c0,6.63-5.37,12-12,12H671c-6.63,0-12-5.37-12-12l0,0c0-6.63,5.37-12,12-12h305
							C982.63,584.9,988,590.28,988,596.9L988,596.9z"/>
					</g>
					<g>
						<path class="st5" d="M1234,837.15c0,6.49-5.26,11.76-11.76,11.76H669.76c-6.49,0-11.76-5.26-11.76-11.76v-0.49
							c0-6.49,5.26-11.76,11.76-11.76h552.49c6.49,0,11.76,5.26,11.76,11.76V837.15z"/>
						<path class="st5" d="M1399,836.9c0,6.63-5.37,12-12,12h-112c-6.63,0-12-5.37-12-12l0,0c0-6.63,5.37-12,12-12h112
							C1393.63,824.9,1399,830.28,1399,836.9L1399,836.9z"/>
						<path class="st5" d="M794,891.9c0,6.63-5.37,12-12,12H670c-6.63,0-12-5.37-12-12l0,0c0-6.63,5.37-12,12-12h112
							C788.63,879.9,794,885.28,794,891.9L794,891.9z"/>
						<path class="st5" d="M960,891.9c0,6.63-5.37,12-12,12H836c-6.63,0-12-5.37-12-12l0,0c0-6.63,5.37-12,12-12h112
							C954.63,879.9,960,885.28,960,891.9L960,891.9z"/>
						<path class="st5" d="M1154,954.9c0,6.63-5.37,12-12,12h-112c-6.63,0-12-5.37-12-12l0,0c0-6.63,5.37-12,12-12h112
							C1148.63,942.9,1154,948.28,1154,954.9L1154,954.9z"/>
						<path class="st5" d="M1360,891.9c0,6.63-5.37,12-12,12h-305c-6.63,0-12-5.37-12-12l0,0c0-6.63,5.37-12,12-12h305
							C1354.63,879.9,1360,885.28,1360,891.9L1360,891.9z"/>
						<path class="st5" d="M988,954.9c0,6.63-5.37,12-12,12H671c-6.63,0-12-5.37-12-12l0,0c0-6.63,5.37-12,12-12h305
							C982.63,942.9,988,948.28,988,954.9L988,954.9z"/>
					</g>
					<g>
						<path class="st5" d="M1234,696.15c0,6.49-5.26,11.76-11.76,11.76H669.76c-6.49,0-11.76-5.26-11.76-11.76v-0.49
							c0-6.49,5.26-11.76,11.76-11.76h552.49c6.49,0,11.76,5.26,11.76,11.76V696.15z"/>
						<path class="st5" d="M795,757.9c0,6.63-5.37,12-12,12H671c-6.63,0-12-5.37-12-12l0,0c0-6.63,5.37-12,12-12h112
							C789.63,745.9,795,751.28,795,757.9L795,757.9z"/>
						<path class="st5" d="M1158,757.9c0,6.63-5.37,12-12,12H841c-6.63,0-12-5.37-12-12l0,0c0-6.63,5.37-12,12-12h305
							C1152.63,745.9,1158,751.28,1158,757.9L1158,757.9z"/>
						<path class="st5" d="M1505,757.9c0,6.63-5.37,12-12,12h-305c-6.63,0-12-5.37-12-12l0,0c0-6.63,5.37-12,12-12h305
							C1499.63,745.9,1505,751.28,1505,757.9L1505,757.9z"/>
					</g>
				</g>
			</g>
		</g>
		<g>
			<g>
				<g>
					<g>
						<path class="st7" d="M1675.95,850.89c0,27.83-22.56,50.39-50.39,50.39H758.12c-27.83,0-50.39-22.56-50.39-50.39V252.13
							c0-27.83,22.56-50.39,50.39-50.39h867.44c27.83,0,50.39,22.56,50.39,50.39V850.89z"/>
						<path class="st0" d="M1651.1,278.22H732.59c-7.19,0-13.02,5.83-13.02,13.02v559.19c0,21.29,17.26,38.56,38.56,38.56h867.43
							c21.29,0,38.56-17.26,38.56-38.56V291.24C1664.12,284.05,1658.29,278.22,1651.1,278.22z"/>
						<g>
							<circle class="st2" cx="791.16" cy="237.26" r="16.35"/>
							<circle class="st2" cx="832.66" cy="237.26" r="16.35"/>
							<circle class="st2" cx="874.16" cy="237.26" r="16.35"/>
						</g>
					</g>
				</g>
				<path class="st2" d="M1614.45,241.99c0,6.09-5.37,10.91-12.45,10.91H950.9c-7.07,0-12.45-4.82-12.45-10.91v-10.11
					c0-6.09,5.37-10.98,12.45-10.98h651.11c7.07,0,12.45,4.89,12.45,10.98V241.99z"/>
			</g>
			<path class="st2" d="M1071.06,830.18c0,6.09-4.94,11.03-11.03,11.03H774.21c-6.09,0-11.03-4.94-11.03-11.03V329.3
				c0-6.09,4.94-11.03,11.03-11.03h285.82c6.09,0,11.03,4.94,11.03,11.03V830.18z"/>
			<g>
				<g>
					<path class="st2" d="M1598.47,530.9h-477.94c-7.46,0-13.53-6.07-13.53-13.53V329.43c0-7.46,6.07-13.53,13.53-13.53h477.94
						c7.46,0,13.53,6.07,13.53,13.53v187.94C1612,524.83,1605.93,530.9,1598.47,530.9z M1120.53,320.9c-4.7,0-8.53,3.83-8.53,8.53
						v187.94c0,4.7,3.83,8.53,8.53,8.53h477.94c4.7,0,8.53-3.83,8.53-8.53V329.43c0-4.7-3.83-8.53-8.53-8.53H1120.53z"/>
				</g>
			</g>
			<g>
				<path class="st2" d="M1598.13,843.9h-477.9c-7.42,0-13.23-7.44-13.23-16.93V583.86c0-9.51,5.81-16.96,13.23-16.96h477.9
					c7.52,0,13.87,7.77,13.87,16.96v243.12C1612,836.15,1605.65,843.9,1598.13,843.9z M1120.23,571.9c-4.54,0-8.23,5.36-8.23,11.96
					v243.12c0,6.58,3.69,11.93,8.23,11.93h477.9c4.72,0,8.87-5.57,8.87-11.93V583.86c0-6.37-4.14-11.96-8.87-11.96H1120.23z"/>
			</g>
			<g>
				<g>
					<path class="st0" d="M901,366.16c0,3.72-3.02,6.74-6.74,6.74h-90.52c-3.72,0-6.74-3.02-6.74-6.74v-0.52
						c0-3.72,3.02-6.74,6.74-6.74h90.52c3.72,0,6.74,3.02,6.74,6.74V366.16z"/>
					<path class="st0" d="M1019,366.16c0,3.72-3.02,6.74-6.74,6.74h-90.52c-3.72,0-6.74-3.02-6.74-6.74v-0.52
						c0-3.72,3.02-6.74,6.74-6.74h90.52c3.72,0,6.74,3.02,6.74,6.74V366.16z"/>
				</g>
				<g>
					<path class="st0" d="M901,426.16c0,3.72-3.02,6.74-6.74,6.74h-90.52c-3.72,0-6.74-3.02-6.74-6.74v-0.52
						c0-3.72,3.02-6.74,6.74-6.74h90.52c3.72,0,6.74,3.02,6.74,6.74V426.16z"/>
					<path class="st0" d="M1019,426.16c0,3.72-3.02,6.74-6.74,6.74h-90.52c-3.72,0-6.74-3.02-6.74-6.74v-0.52
						c0-3.72,3.02-6.74,6.74-6.74h90.52c3.72,0,6.74,3.02,6.74,6.74V426.16z"/>
				</g>
				<g>
					<path class="st0" d="M960,397.16c0,3.72-3.02,6.74-6.74,6.74h-90.52c-3.72,0-6.74-3.02-6.74-6.74v-0.52
						c0-3.72,3.02-6.74,6.74-6.74h90.52c3.72,0,6.74,3.02,6.74,6.74V397.16z"/>
					<path class="st0" d="M847,397.01c0,3.81-3.09,6.89-6.89,6.89h-36.21c-3.81,0-6.89-3.09-6.89-6.89v-0.21
						c0-3.81,3.09-6.89,6.89-6.89h36.21c3.81,0,6.89,3.09,6.89,6.89V397.01z"/>
					<path class="st0" d="M1022,397.01c0,3.81-3.09,6.89-6.89,6.89h-36.21c-3.81,0-6.89-3.09-6.89-6.89v-0.21
						c0-3.81,3.09-6.89,6.89-6.89h36.21c3.81,0,6.89,3.09,6.89,6.89V397.01z"/>
				</g>
			</g>
			<g>
				<g>
					<path class="st0" d="M901,724.16c0,3.72-3.02,6.74-6.74,6.74h-90.52c-3.72,0-6.74-3.02-6.74-6.74v-0.52
						c0-3.72,3.02-6.74,6.74-6.74h90.52c3.72,0,6.74,3.02,6.74,6.74V724.16z"/>
					<path class="st0" d="M1019,724.16c0,3.72-3.02,6.74-6.74,6.74h-90.52c-3.72,0-6.74-3.02-6.74-6.74v-0.52
						c0-3.72,3.02-6.74,6.74-6.74h90.52c3.72,0,6.74,3.02,6.74,6.74V724.16z"/>
				</g>
				<g>
					<path class="st0" d="M901,785.16c0,3.72-3.02,6.74-6.74,6.74h-90.52c-3.72,0-6.74-3.02-6.74-6.74v-0.52
						c0-3.72,3.02-6.74,6.74-6.74h90.52c3.72,0,6.74,3.02,6.74,6.74V785.16z"/>
					<path class="st0" d="M1019,785.16c0,3.72-3.02,6.74-6.74,6.74h-90.52c-3.72,0-6.74-3.02-6.74-6.74v-0.52
						c0-3.72,3.02-6.74,6.74-6.74h90.52c3.72,0,6.74,3.02,6.74,6.74V785.16z"/>
				</g>
				<g>
					<path class="st0" d="M960,756.16c0,3.72-3.02,6.74-6.74,6.74h-90.52c-3.72,0-6.74-3.02-6.74-6.74v-0.52
						c0-3.72,3.02-6.74,6.74-6.74h90.52c3.72,0,6.74,3.02,6.74,6.74V756.16z"/>
					<path class="st0" d="M847,756.01c0,3.81-3.09,6.89-6.89,6.89h-36.21c-3.81,0-6.89-3.09-6.89-6.89v-0.21
						c0-3.81,3.09-6.89,6.89-6.89h36.21c3.81,0,6.89,3.09,6.89,6.89V756.01z"/>
					<path class="st0" d="M1022,756.01c0,3.81-3.09,6.89-6.89,6.89h-36.21c-3.81,0-6.89-3.09-6.89-6.89v-0.21
						c0-3.81,3.09-6.89,6.89-6.89h36.21c3.81,0,6.89,3.09,6.89,6.89V756.01z"/>
				</g>
			</g>
			<g>
				<path class="st2" d="M1351.37,637.18c0,6.09-4.94,11.03-11.03,11.03h-201.27c-6.09,0-11.03-4.94-11.03-11.03v-35.84
					c0-6.09,4.94-11.03,11.03-11.03h201.27c6.09,0,11.03,4.94,11.03,11.03V637.18z"/>
				<path class="st2" d="M1351.37,718.97c0,6.09-4.94,11.03-11.03,11.03h-201.27c-6.09,0-11.03-4.94-11.03-11.03v-35.84
					c0-6.09,4.94-11.03,11.03-11.03h201.27c6.09,0,11.03,4.94,11.03,11.03V718.97z"/>
				<path class="st2" d="M1351.37,800.77c0,6.09-4.94,11.03-11.03,11.03h-201.27c-6.09,0-11.03-4.94-11.03-11.03v-35.84
					c0-6.09,4.94-11.03,11.03-11.03h201.27c6.09,0,11.03,4.94,11.03,11.03V800.77z"/>
			</g>
			<g>
				<path class="st2" d="M1591.24,637.18c0,6.09-4.94,11.03-11.03,11.03h-201.27c-6.09,0-11.03-4.94-11.03-11.03v-35.84
					c0-6.09,4.94-11.03,11.03-11.03h201.27c6.09,0,11.03,4.94,11.03,11.03V637.18z"/>
				<path class="st2" d="M1591.24,718.97c0,6.09-4.94,11.03-11.03,11.03h-201.27c-6.09,0-11.03-4.94-11.03-11.03v-35.84
					c0-6.09,4.94-11.03,11.03-11.03h201.27c6.09,0,11.03,4.94,11.03,11.03V718.97z"/>
				<path class="st2" d="M1591.24,800.77c0,6.09-4.94,11.03-11.03,11.03h-201.27c-6.09,0-11.03-4.94-11.03-11.03v-35.84
					c0-6.09,4.94-11.03,11.03-11.03h201.27c6.09,0,11.03,4.94,11.03,11.03V800.77z"/>
			</g>
			<g>
				<g>
					<path class="st5" d="M1046,653.87c0,6.09-4.94,11.03-11.03,11.03H794.03c-6.09,0-11.03-4.94-11.03-11.03V483.93
						c0-6.09,4.94-11.03,11.03-11.03h240.94c6.09,0,11.03,4.94,11.03,11.03V653.87z"/>
				</g>
			</g>
			<g>
				<g>
					<g>
						<circle class="st2" cx="1165.26" cy="362.38" r="16.08"/>
						<path class="st2" d="M1574,363.01c0,3.81-3.09,6.89-6.89,6.89h-347.21c-3.81,0-6.89-3.09-6.89-6.89v-0.21
							c0-3.81,3.09-6.89,6.89-6.89h347.21c3.81,0,6.89,3.09,6.89,6.89V363.01z"/>
					</g>
					<g>
						<circle class="st2" cx="1165.26" cy="423.96" r="16.08"/>
						<path class="st2" d="M1574,425.01c0,3.81-3.09,6.89-6.89,6.89h-347.21c-3.81,0-6.89-3.09-6.89-6.89v-0.21
							c0-3.81,3.09-6.89,6.89-6.89h347.21c3.81,0,6.89,3.09,6.89,6.89V425.01z"/>
					</g>
					<g>
						
							<ellipse transform="matrix(0.9239 -0.3827 0.3827 0.9239 -97.1064 482.8868)" class="st2" cx="1165.26" cy="485.54" rx="16.08" ry="16.08"/>
						<path class="st2" d="M1574,486.01c0,3.81-3.09,6.89-6.89,6.89h-347.21c-3.81,0-6.89-3.09-6.89-6.89v-0.21
							c0-3.81,3.09-6.89,6.89-6.89h347.21c3.81,0,6.89,3.09,6.89,6.89V486.01z"/>
					</g>
				</g>
			</g>
		</g>
		<g>
			
				<ellipse transform="matrix(0.7071 -0.7071 0.7071 0.7071 263.9743 1419.0503)" class="st8" cx="1844.93" cy="390.88" rx="120.84" ry="120.84"/>
			<g>
				<path class="st0" d="M1812.89,423.28l-60.94-26.88v-8.78l60.94-30.44v14.73l-41.97,19.45l41.97,17.24V423.28z"/>
				<path class="st0" d="M1869.59,346.02l-33.44,89.72h-17l33.44-89.72H1869.59z"/>
				<path class="st0" d="M1875.6,408.61l41.97-17.24l-41.97-19.45v-14.73l60.94,30.44v8.78l-60.94,26.88V408.61z"/>
			</g>
		</g>
		<g>
			<g>
				<path class="st7" d="M552.05,394.46c-0.02-6.84-5.57-12.37-12.41-12.35l-11.61,0.03c-3.76-9.87-9.09-18.96-15.7-26.96
					l5.75-10.08c3.39-5.94,1.32-13.5-4.62-16.89l-37.36-21.32c-5.94-3.39-13.5-1.32-16.89,4.62l-5.76,10.09
					c-4.96-0.78-10.04-1.19-15.22-1.18c-4.92,0.01-9.76,0.4-14.48,1.12l-5.72-10.09c-3.37-5.95-10.93-8.04-16.88-4.67l-37.43,21.21
					c-5.95,3.37-8.04,10.93-4.67,16.88l5.73,10.11c-6.8,8.16-12.25,17.47-16.05,27.59l-11.61,0.03
					c-6.84,0.02-12.37,5.57-12.35,12.41l0.1,43.02c0.02,6.84,5.57,12.37,12.41,12.35l11.6-0.03c3.76,9.87,9.09,18.96,15.7,26.96
					l-5.75,10.08c-3.39,5.94-1.32,13.5,4.62,16.89l37.36,21.32c5.94,3.39,13.5,1.32,16.89-4.62l5.75-10.08
					c4.96,0.78,10.04,1.19,15.22,1.18c4.92-0.01,9.76-0.4,14.48-1.12l5.72,10.09c3.37,5.95,10.93,8.04,16.88,4.67l37.43-21.21
					c5.95-3.37,8.04-10.93,4.67-16.88l-5.73-10.11c6.8-8.16,12.25-17.47,16.05-27.59l11.61-0.03c6.84-0.02,12.37-5.57,12.35-12.41
					L552.05,394.46z M438.53,443.39c-15,0.03-27.18-12.09-27.22-27.09c-0.04-15,12.09-27.18,27.09-27.22
					c15-0.04,27.18,12.09,27.22,27.09C465.66,431.17,453.53,443.36,438.53,443.39z"/>
				<g>
					<path class="st0" d="M497.73,458.91c0.19-0.26,0.37-0.53,0.55-0.79c0.41-0.6,0.82-1.2,1.21-1.81c0.26-0.4,0.51-0.82,0.77-1.23
						c0.32-0.52,0.64-1.03,0.95-1.55c0.34-0.57,0.65-1.16,0.98-1.74c0.22-0.4,0.45-0.79,0.66-1.19c0.53-1.01,1.04-2.03,1.53-3.07
						c0.53-1.13,1.02-2.26,1.49-3.41c0.07-0.18,0.13-0.35,0.2-0.53c0.39-0.98,0.77-1.97,1.12-2.96c0.02-0.05,0.03-0.1,0.05-0.15
						c5.5-15.77,5.42-32.82-0.35-48.74c-6.17-17.02-18.16-30.85-33.99-39.35c-0.12-0.06-0.23-0.13-0.35-0.2
						c-1.09-0.58-2.2-1.14-3.33-1.66c-17.65-8.25-37.46-9.14-55.78-2.5c-18.32,6.64-32.95,20.02-41.21,37.67
						c-8.26,17.65-9.15,37.46-2.5,55.78c0.05,0.13,0.11,0.26,0.18,0.37c6.42,17.4,19.4,32.38,37.49,40.85
						c4.97,2.32,10.06,4.03,15.2,5.17c13.61,3,27.55,1.94,40.24-2.6c0.11-0.02,0.23-0.03,0.34-0.07
						c13.19-4.78,24.45-13.06,32.81-23.91c0.08-0.1,0.16-0.21,0.24-0.31C496.73,460.3,497.24,459.61,497.73,458.91z M409.05,479.12
						c-32.29-15.11-47.43-52.2-35.94-85.16c0.01-0.02,0.01-0.04,0.02-0.06c0.33-0.96,0.7-1.91,1.08-2.86
						c0.06-0.15,0.11-0.3,0.17-0.45c0.44-1.08,0.91-2.16,1.41-3.22c7.81-16.7,21.65-29.35,38.98-35.64
						c17.32-6.28,36.05-5.44,52.74,2.36c0.01,0,0.02,0.01,0.03,0.02c11.55,5.4,21.17,13.7,28.08,24.04c3.07,4.6,5.62,9.6,7.55,14.94
						c1.18,3.25,2.11,6.55,2.78,9.87c2.94,14.41,1.19,29.32-5.15,42.89c-0.22,0.47-0.46,0.93-0.69,1.4
						c-0.29,0.58-0.56,1.16-0.86,1.73c-0.14,0.27-0.3,0.53-0.44,0.79c-0.42,0.77-0.85,1.54-1.29,2.29c-0.05,0.08-0.1,0.15-0.14,0.23
						C479.38,482.11,441.28,494.2,409.05,479.12z"/>
					<path class="st0" d="M496.01,395.68c-5.59-15.42-16.85-27.73-31.7-34.68c-1-0.45-2.16-0.03-2.62,0.95
						c-0.46,0.99-0.04,2.16,0.95,2.62c13.9,6.5,24.44,18.03,29.67,32.45c5.23,14.43,4.53,30.02-1.97,43.92
						c-6.5,13.9-18.03,24.43-32.46,29.67c-14.43,5.23-30.03,4.53-43.93-1.97c-13.9-6.5-24.43-18.03-29.67-32.45
						c-5.23-14.43-4.53-30.03,1.97-43.93c0.46-0.99,0.04-2.16-0.95-2.62c-1-0.45-2.16-0.03-2.62,0.95
						c-6.95,14.85-7.7,31.53-2.11,46.94c5.59,15.42,16.85,27.74,31.7,34.69c4.18,1.96,8.47,3.39,12.8,4.35
						c27.43,6.05,56.44-7.46,68.83-33.95C500.85,427.77,501.6,411.1,496.01,395.68z"/>
				</g>
			</g>
			<g>
				<path class="st7" d="M669.42,274.17c-0.01-4.36-3.56-7.9-7.92-7.88l-7.47,0.02c-2.4-6.29-5.75-12.11-9.96-17.21l3.67-6.44
					c2.16-3.79,0.84-8.62-2.95-10.78l-23.85-13.61c-3.79-2.16-8.62-0.84-10.78,2.95l-3.71,6.5c-3.16-0.5-6.38-0.82-9.68-0.82
					c-3.14,0.01-6.2,0.33-9.21,0.79l-3.69-6.51c-2.15-3.8-6.98-5.13-10.77-2.98l-23.89,13.54c-3.8,2.15-5.13,6.98-2.98,10.77
					l3.66,6.46c-4.33,5.2-7.77,11.15-10.19,17.61l-7.47,0.02c-4.37,0.01-7.9,3.56-7.89,7.92l0.06,27.46
					c0.01,4.36,3.56,7.9,7.92,7.89l7.47-0.02c2.4,6.29,5.75,12.11,9.96,17.21l-3.67,6.44c-2.16,3.79-0.84,8.62,2.95,10.78
					l23.85,13.61c3.79,2.16,8.62,0.84,10.78-2.95l3.71-6.5c3.16,0.5,6.38,0.82,9.68,0.82c3.14-0.01,6.2-0.32,9.21-0.79l3.69,6.51
					c2.15,3.8,6.98,5.13,10.77,2.98l23.89-13.54c3.8-2.15,5.13-6.98,2.98-10.77l-3.66-6.47c4.33-5.2,7.77-11.15,10.19-17.6
					l7.47-0.02c4.36-0.01,7.9-3.56,7.89-7.92L669.42,274.17z M596.96,305.41c-9.57,0.02-17.35-7.72-17.37-17.29
					c-0.02-9.57,7.72-17.35,17.29-17.37c9.57-0.02,17.35,7.72,17.37,17.29C614.27,297.61,606.53,305.39,596.96,305.41z"/>
				<g>
					<path class="st0" d="M615.4,247.71c-0.99-0.43-2.16-0.03-2.62,0.95c-0.46,0.99-0.04,2.16,0.95,2.62
						c20.2,9.45,28.95,33.57,19.5,53.77c-4.58,9.79-12.69,17.2-22.85,20.89c-10.16,3.69-21.14,3.2-30.92-1.39
						c-20.2-9.45-28.95-33.57-19.5-53.78c0.46-0.99,0.04-2.16-0.95-2.62c-0.98-0.44-2.16-0.03-2.62,0.95
						c-10.37,22.17-0.77,48.65,21.4,59.02c3.02,1.41,6.15,2.47,9.33,3.17c8.12,1.79,16.6,1.25,24.61-1.65
						c11.15-4.04,20.05-12.18,25.08-22.92C647.16,284.56,637.57,258.08,615.4,247.71z"/>
					<path class="st0" d="M566.32,300.98c1.02-0.37,1.55-1.5,1.18-2.52c-5.81-16.03,2.5-33.81,18.54-39.62
						c16.03-5.8,33.81,2.5,39.62,18.54c2.82,7.77,2.44,16.17-1.06,23.65c-3.5,7.49-9.71,13.16-17.48,15.98
						c-1.02,0.37-1.55,1.5-1.18,2.52c0.24,0.66,0.79,1.11,1.43,1.25c0.35,0.08,0.73,0.06,1.09-0.07
						c18.08-6.55,27.46-26.6,20.9-44.67c-6.56-18.08-26.6-27.45-44.67-20.9c-18.08,6.55-27.45,26.59-20.9,44.67
						C564.17,300.83,565.3,301.36,566.32,300.98z"/>
				</g>
			</g>
		</g>
		<g>
			<g>
				<g>
					<path class="st7" d="M1994.06,406.9h-6c-1.1,0-2-0.9-2-2c0-1.1,0.9-2,2-2h6c1.1,0,2,0.9,2,2
						C1996.06,406.01,1995.17,406.9,1994.06,406.9z"/>
				</g>
				<g>
					<path class="st7" d="M2024.06,406.9h-15c-1.1,0-2-0.9-2-2c0-1.1,0.9-2,2-2h15c1.1,0,2,0.9,2,2
						C2026.06,406.01,2025.17,406.9,2024.06,406.9z"/>
				</g>
				<g>
					<path class="st7" d="M2045,412.88c-1.1,0-2-0.9-2-2v-3.98h-3.94c-1.1,0-2-0.9-2-2c0-1.1,0.9-2,2-2h6c1.1,0,1.94,0.87,1.94,1.98
						v6C2047,411.98,2046.1,412.88,2045,412.88z"/>
				</g>
				<g>
					<path class="st7" d="M2045,796.88c-1.1,0-2-0.9-2-2v-12c0-1.1,0.9-2,2-2s2,0.9,2,2v12C2047,795.98,2046.1,796.88,2045,796.88z
						 M2045,772.88c-1.1,0-2-0.9-2-2v-12c0-1.1,0.9-2,2-2s2,0.9,2,2v12C2047,771.98,2046.1,772.88,2045,772.88z M2045,748.88
						c-1.1,0-2-0.9-2-2v-12c0-1.1,0.9-2,2-2s2,0.9,2,2v12C2047,747.98,2046.1,748.88,2045,748.88z M2045,724.88c-1.1,0-2-0.9-2-2
						v-12c0-1.1,0.9-2,2-2s2,0.9,2,2v12C2047,723.98,2046.1,724.88,2045,724.88z M2045,700.88c-1.1,0-2-0.9-2-2v-12c0-1.1,0.9-2,2-2
						s2,0.9,2,2v12C2047,699.98,2046.1,700.88,2045,700.88z M2045,676.88c-1.1,0-2-0.9-2-2v-12c0-1.1,0.9-2,2-2s2,0.9,2,2v12
						C2047,675.98,2046.1,676.88,2045,676.88z M2045,652.88c-1.1,0-2-0.9-2-2v-12c0-1.1,0.9-2,2-2s2,0.9,2,2v12
						C2047,651.98,2046.1,652.88,2045,652.88z M2045,628.88c-1.1,0-2-0.9-2-2v-12c0-1.1,0.9-2,2-2s2,0.9,2,2v12
						C2047,627.98,2046.1,628.88,2045,628.88z M2045,604.88c-1.1,0-2-0.9-2-2v-12c0-1.1,0.9-2,2-2s2,0.9,2,2v12
						C2047,603.98,2046.1,604.88,2045,604.88z M2045,580.88c-1.1,0-2-0.9-2-2v-12c0-1.1,0.9-2,2-2s2,0.9,2,2v12
						C2047,579.98,2046.1,580.88,2045,580.88z M2045,556.88c-1.1,0-2-0.9-2-2v-12c0-1.1,0.9-2,2-2s2,0.9,2,2v12
						C2047,555.98,2046.1,556.88,2045,556.88z M2045,532.88c-1.1,0-2-0.9-2-2v-12c0-1.1,0.9-2,2-2s2,0.9,2,2v12
						C2047,531.98,2046.1,532.88,2045,532.88z M2045,508.88c-1.1,0-2-0.9-2-2v-12c0-1.1,0.9-2,2-2s2,0.9,2,2v12
						C2047,507.98,2046.1,508.88,2045,508.88z M2045,484.88c-1.1,0-2-0.9-2-2v-12c0-1.1,0.9-2,2-2s2,0.9,2,2v12
						C2047,483.98,2046.1,484.88,2045,484.88z M2045,460.88c-1.1,0-2-0.9-2-2v-12c0-1.1,0.9-2,2-2s2,0.9,2,2v12
						C2047,459.98,2046.1,460.88,2045,460.88z M2045,436.88c-1.1,0-2-0.9-2-2v-12c0-1.1,0.9-2,2-2s2,0.9,2,2v12
						C2047,435.98,2046.1,436.88,2045,436.88z"/>
				</g>
				<g>
					<path class="st7" d="M2045.06,814.9h-6c-1.1,0-2-0.9-2-2s0.9-2,2-2h3.94v-4.02c0-1.1,0.9-2,2-2s2,0.9,2,2v6
						C2047,813.98,2046.17,814.9,2045.06,814.9z"/>
				</g>
				<g>
					<path class="st7" d="M2026.06,814.9h-13c-1.1,0-2-0.9-2-2s0.9-2,2-2h13c1.1,0,2,0.9,2,2S2027.17,814.9,2026.06,814.9z
						 M2000.06,814.9h-13c-1.1,0-2-0.9-2-2s0.9-2,2-2h13c1.1,0,2,0.9,2,2S2001.17,814.9,2000.06,814.9z"/>
				</g>
				<g>
					<path class="st7" d="M1972.06,814.9h-6c-1.1,0-2-0.9-2-2s0.9-2,2-2h6c1.1,0,2,0.9,2,2S1973.17,814.9,1972.06,814.9z"/>
				</g>
			</g>
		</g>
		<g>
			<path class="st9" d="M1941.48,1050.85c0,18.83-17.61,34.09-39.33,34.09h-677.07c-21.72,0-39.33-15.26-39.33-34.09V645.8
				c0-18.83,17.61-34.09,39.33-34.09h677.07c21.72,0,39.33,15.26,39.33,34.09V1050.85z"/>
			<path class="st0" d="M1922.08,663.45h-716.93c-5.61,0-10.16,3.94-10.16,8.8v378.28c0,14.41,13.47,26.08,30.09,26.08h677.06
				c16.62,0,30.09-11.68,30.09-26.08V672.25C1932.24,667.39,1927.69,663.45,1922.08,663.45z"/>
			<g>
				<circle class="st2" cx="1249.31" cy="637.3" r="10.52"/>
				<circle class="st2" cx="1276.02" cy="637.3" r="10.52"/>
				<circle class="st2" cx="1302.73" cy="637.3" r="10.52"/>
			</g>
			<g>
				<g>
					<path class="st2" d="M1365.06,836.84c0,6.1-4.94,11.04-11.04,11.04H1250.1c-6.1,0-11.04-4.94-11.04-11.04V732.92
						c0-6.1,4.94-11.04,11.04-11.04h103.93c6.1,0,11.04,4.94,11.04,11.04V836.84z"/>
					<path class="st2" d="M1537.97,836.84c0,6.1-4.94,11.04-11.04,11.04h-103.93c-6.1,0-11.04-4.94-11.04-11.04V732.92
						c0-6.1,4.94-11.04,11.04-11.04h103.93c6.1,0,11.04,4.94,11.04,11.04V836.84z"/>
					<path class="st2" d="M1710.87,836.84c0,6.1-4.94,11.04-11.04,11.04h-103.93c-6.1,0-11.04-4.94-11.04-11.04V732.92
						c0-6.1,4.94-11.04,11.04-11.04h103.93c6.1,0,11.04,4.94,11.04,11.04V836.84z"/>
					<path class="st2" d="M1883.78,836.84c0,6.1-4.94,11.04-11.04,11.04h-103.93c-6.1,0-11.04-4.94-11.04-11.04V732.92
						c0-6.1,4.94-11.04,11.04-11.04h103.93c6.1,0,11.04,4.94,11.04,11.04V836.84z"/>
				</g>
				<g>
					<path class="st2" d="M1365.06,1015.84c0,6.1-4.94,11.04-11.04,11.04H1250.1c-6.1,0-11.04-4.94-11.04-11.04V911.92
						c0-6.1,4.94-11.04,11.04-11.04h103.93c6.1,0,11.04,4.94,11.04,11.04V1015.84z"/>
					<path class="st2" d="M1537.97,1015.84c0,6.1-4.94,11.04-11.04,11.04h-103.93c-6.1,0-11.04-4.94-11.04-11.04V911.92
						c0-6.1,4.94-11.04,11.04-11.04h103.93c6.1,0,11.04,4.94,11.04,11.04V1015.84z"/>
					<path class="st2" d="M1710.87,1015.84c0,6.1-4.94,11.04-11.04,11.04h-103.93c-6.1,0-11.04-4.94-11.04-11.04V911.92
						c0-6.1,4.94-11.04,11.04-11.04h103.93c6.1,0,11.04,4.94,11.04,11.04V1015.84z"/>
					<path class="st2" d="M1883.78,1015.84c0,6.1-4.94,11.04-11.04,11.04h-103.93c-6.1,0-11.04-4.94-11.04-11.04V911.92
						c0-6.1,4.94-11.04,11.04-11.04h103.93c6.1,0,11.04,4.94,11.04,11.04V1015.84z"/>
				</g>
			</g>
		</g>
		<g>
			<g>
				<g>
					<rect x="1771.74" y="1254.38" class="st4" width="9.93" height="106.09"/>
					<path class="st4" d="M1709.83,1374.1c1.05-4.04,3.21-9.73,8.18-14.02c10.42-8.99,24.63-4.41,45.55-4.09
						c29.4,0.45,26.82-8.23,48.47-6.42c32.73,2.72,62.48,24.53,62.49,24.53l0,0C1874.52,1374.1,1816.67,1374.1,1709.83,1374.1z"/>
					<path class="st5" d="M1774.51,986.47c30.85-25.43,94.61-6.54,123.56,60.08c56.84,130.82-71.64,277.98-215.68,174.03
						c-30.31-21.87,28.3-78.77,46.62-118.32C1747.33,1062.71,1743.66,1011.9,1774.51,986.47z"/>
					<path class="st4" d="M1782.83,992.23c0,0,41.34,8.83,61.32,80.34c36.01,128.93-48.16,196.73-163.79,128.26
						c80.2-25.94,92.35-109.89,92.35-109.89L1782.83,992.23z"/>
				</g>
				<path class="st10" d="M1897.34,932.89c-8.74-2.59-17.41-4.83-25.72-6.74c-7.16-1.66-14.06-3.08-20.51-4.29
					c-0.04-0.01-0.09-0.02-0.13-0.02c-1.19-0.26-2.39-0.48-3.59-0.67c-20.29-3.31-42.77,0.95-63.86,8.2
					c-5.74,1.97-11.39,4.16-16.84,6.49c-35.32,14.99-180.03,64.35-186.94,109.12c-2.26,14.64-2.63,30.89,5.71,43.1
					c12.36,18.05,38.73,25.72,67.51,20.04c6.92-9.27,13.84-18.55,20.77-27.84c-24.82-6.92-37.28-14.02-37.39-21.29
					c-0.15-10.07,23.38-20.49,70.6-31.25c-1.54,13.24-5.44,33.19-16.77,54.25c-15.18,28.2-29.18,31.32-31.52,45.53
					c-4.08,24.86,30.53,65.2,73.2,84.4c0.46,0.21,0.93,0.41,1.4,0.62c0.46,0.21,0.93,0.41,1.4,0.61c2.35,1,4.71,1.93,7.1,2.79
					c0.86,0.31,1.73,0.62,2.6,0.91c0.57,0.19,1.14,0.38,1.71,0.56c0.48,0.16,0.96,0.31,1.44,0.46c0.49,0.15,0.97,0.29,1.45,0.43
					c1.44,0.43,2.9,0.83,4.36,1.2c0.41,0.11,0.83,0.22,1.25,0.31c1.08,0.27,2.16,0.51,3.25,0.74c0.8,0.17,1.6,0.33,2.39,0.48
					c0.62,0.12,1.25,0.23,1.87,0.33c0.84,0.15,1.68,0.27,2.52,0.4c2.3,0.33,4.59,0.59,6.89,0.76c0.42,0.03,0.84,0.06,1.27,0.08
					c0.34,0.03,0.7,0.05,1.04,0.06c0.49,0.02,0.98,0.04,1.46,0.06c10.14,0.33,20.18-1.04,29.76-4.55
					c44.33-16.26,61.07-71.85,65.05-85.08c7.24-24.03,6.62-44.03,5.79-70.97c-0.03-1.12-0.07-2.23-0.12-3.33
					c-0.05-1.4-0.12-2.8-0.18-4.17c-1.35-27.32-5.31-50.71-9.46-68.98c-1.29-5.66-2.59-10.83-3.84-15.47
					C1871.11,963.16,1884.93,950.86,1897.34,932.89z"/>
				<g>
					<path class="st7" d="M1443.72,1313.42c0,0-74.12,9.24-99.89,39.16c2.92,0.63,5.83,1.18,8.75,1.64
						c4.56,0.72,7.97,1.05,8.75,1.13c19.13,1.95,72.77,15.92,130.43,10.26c4.9-0.48,12.71-1.39,22.33-3.17
						c1.12-10.24,2.25-20.47,3.37-30.71L1443.72,1313.42z"/>
					<path class="st9" d="M1343.83,1352.58c-5.42,6.29-8.71,13.5-8.71,21.73c60.82,0,177.65,0,177.65,0l1.3-11.87
						c-33.09,2.25-58.79-0.67-76.38-3.85c-16.97-3.07-34.74-7.88-61.74-8.04C1362.36,1350.47,1351.19,1351.6,1343.83,1352.58z"/>
				</g>
				<g>
					<g>
						<path class="st7" d="M1653.24,1313.42c0,0-74.12,9.24-99.89,39.16c2.92,0.63,5.83,1.18,8.75,1.64
							c4.56,0.72,7.97,1.05,8.75,1.13c19.13,1.95,72.77,15.92,130.43,10.26c4.9-0.48,12.71-1.39,22.33-3.17
							c1.12-10.24,2.25-20.47,3.37-30.71L1653.24,1313.42z"/>
						<path class="st9" d="M1553.35,1352.58c-5.42,6.29-8.71,13.5-8.71,21.73c60.82,0,177.65,0,177.65,0l1.3-11.87
							c-33.09,2.25-58.79-0.67-76.38-3.85c-16.97-3.07-34.74-7.88-61.74-8.04C1571.87,1350.47,1560.7,1351.6,1553.35,1352.58z"/>
					</g>
				</g>
				<path class="st8" d="M1670.18,1084.18c0,0,41.8,2.6,61.3,20.38c8.99,8.05-49.82,6.84-58.77,3.76
					c-8.96-3.08-16.36-5.06-16.36-5.06L1670.18,1084.18z"/>
				<path class="st11" d="M1871.63,926.15c8.3,1.91,16.97,4.15,25.72,6.74c-12.42,17.97-26.24,30.27-35.05,37.28
					c1.25,4.64,2.55,9.8,3.84,15.47c4.15,18.27,8.11,41.66,9.46,68.98c0.06,1.37,0.13,2.77,0.18,4.17c0.05,1.1,0.09,2.21,0.12,3.33
					c0.83,26.94,1.45,46.94-5.79,70.97c-3.98,13.23-20.72,68.81-65.05,85.08c-9.58,3.51-19.62,4.89-29.76,4.55
					c-0.48-0.02-0.97-0.04-1.46-0.06c-0.34-0.01-0.7-0.03-1.04-0.06c-0.42-0.02-0.84-0.05-1.27-0.08c-2.3-0.17-4.59-0.42-6.89-0.76
					c-0.84-0.13-1.68-0.26-2.52-0.4c-0.63-0.11-1.26-0.22-1.87-0.33c-0.79-0.15-1.6-0.31-2.39-0.48c-1.09-0.23-2.17-0.47-3.25-0.74
					c-0.41-0.1-0.83-0.21-1.25-0.31c-1.46-0.36-2.92-0.77-4.36-1.2c-0.48-0.14-0.96-0.28-1.45-0.43c-0.48-0.15-0.96-0.3-1.44-0.46
					c-0.57-0.18-1.14-0.37-1.71-0.56c-0.87-0.29-1.74-0.6-2.6-0.91c-2.39-0.85-4.75-1.79-7.1-2.79c-0.47-0.2-0.94-0.4-1.4-0.61
					c-0.47-0.21-0.94-0.41-1.4-0.62c40.87-14.03,72.67-37.77,87.07-69.79c18.85-41.94,12.46-87.85,12.46-87.85
					c-4.59-32.96-18.51-51.73-18.92-70.01c-0.11-4.88,0.74-9.71,2.97-14.77c8.21-18.55,24.12-15.37,47.3-34.95
					C1865.92,931.86,1868.87,929.05,1871.63,926.15z"/>
				<path class="st12" d="M1721.59,1128.86c-76.92,10.37-129.18,65.15-129.13,119.41c0.04,40.68,29.45,70.12,38.97,78.91
					c9.93,3.7,23.46,7.53,39.8,8.8c25.26,1.97,45.39,0.45,57.94-3.74c-37.91-23.79-49.39-75.24-29.99-109.43
					c15.87-27.98,50.61-43.1,85.39-35.93C1785.28,1176.51,1807.68,1149.04,1721.59,1128.86z"/>
				<g>
					<g>
						<path class="st13" d="M1712.78,1119.32c-42.01,6.85-100.68,15.91-139.34,16.7c-66.74,1.36-83.05,4.33-97.41,19.58
							c-22.24,23.63-6.92,53.78-30.47,123.21c-5.33,15.7-10.85,28.13-14.6,36.03c5.53,2.8,11.46,5.52,17.8,8.06
							c27.44,10.99,53.1,14.94,73.66,16.01c0.82-8.08,2.27-20.38,4.83-35.26c7.99-46.43,11.98-69.64,23.09-83.03
							c23.28-28.06,66.29-5.75,138.48-9.05c29.49-1.35,70.61-7.22,119.09-27.82c-3.08-9.96-12.45-21.15-20.66-28.77
							C1765.67,1134.92,1742.97,1123.98,1712.78,1119.32z"/>
					</g>
				</g>
				<g>
					<path class="st0" d="M1458.24,1375.07L1458.24,1375.07c-2.94-0.73-4.75-3.74-4.02-6.69l60.01-240.93
						c0.73-2.94,3.74-4.75,6.69-4.02h0c2.94,0.73,4.75,3.74,4.02,6.69l-60.01,240.93
						C1464.19,1373.99,1461.18,1375.8,1458.24,1375.07z"/>
					<path class="st0" d="M1509.57,1109.48c133.03,0,266.07,0,399.1,0c22.64,0,26.37,11.96,23.58,19.62
						c-2.7,7.4-26.1,9.34-40.57,10.21c-77.83,4.64-161.49-6.15-215.11-8.93c-114.75-5.96-194.66,19.39-205.68,1.91
						c-3.11-4.94-3.7-10.62,4.09-15.74C1485.76,1109.46,1498.87,1109.48,1509.57,1109.48z"/>
					<path class="st0" d="M1927.01,1375.07L1927.01,1375.07c2.94-0.73,4.75-3.74,4.02-6.69l-60.01-240.93
						c-0.73-2.94-3.74-4.75-6.69-4.02l0,0c-2.94,0.73-4.75,3.74-4.02,6.69l60.01,240.93
						C1921.05,1373.99,1924.06,1375.8,1927.01,1375.07z"/>
				</g>
				<path class="st7" d="M1656.82,1091.27l-156.59-2.09c-4.75-0.06-8.6-3.88-8.7-8.64l-1.96-97.19c-0.1-4.89,3.81-8.93,8.7-8.99
					l164.45-2.08c5.11-0.06,9.21,4.22,8.91,9.33l-5.9,101.36C1665.47,1087.68,1661.54,1091.33,1656.82,1091.27z"/>
				<path class="st9" d="M1588.59,1045.68c-7.42,0-24,0-28.56,0c-4.56,0-5.18,4.72-6.73,8.59c-9.27,23.1-20.89,43.38-17.71,51.44
					c1.52,3.86,6.95,5.61,15.91,5.61c8.97,0,43.31-0.54,48.84-0.54c5.52,0,9.01,0.29,10.93-1.37c4.63-5.31-5.63-6.62-13.9-6.62
					c-8.27,0-17.84-0.23-19.15-2.44C1576.9,1098.13,1596.02,1045.68,1588.59,1045.68z"/>
				<path class="st8" d="M1881.77,1056.48l-24.12,17.43l-2.11-0.75c-3.87-1.7-28.06-11.9-46.22-0.02
					c-3.27,2.14-11.59,7.59-12.23,16.74c-0.53,7.55,4.28,16.15,9.13,16.38c6.59,0.31,7.3-15.1,17.91-18.27
					c8.99-2.68,14.4,6.63,26.34,6.76c6.8,0.07,15.61-2.82,26.04-14.14l16.05-7.78L1881.77,1056.48z"/>
				<path class="st10" d="M1884.06,1111.31l-8.29-52.53l-0.63-3.98c0,0,0.16-0.06,0.45-0.19c5.34-2.21,55.95-23.61,44.79-34.77
					c-6.59-6.59-29.74-24.02-54.25-34.21c-19.33-8.05-39.51-11.59-53.06-1.79c-0.2,0.15-0.39,0.28-0.6,0.41
					c-27.13,18.69-71.57-13.79-81.91-21.91c-1.42-1.11-2.2-1.77-2.2-1.77s0.01-0.01,0.03-0.02c0.82-0.56,19.16-13.08,38.3-24.71
					c5.46-2.33,11.1-4.52,16.84-6.49c21.08-7.24,43.57-11.5,63.86-8.2c1.18,0.22,2.38,0.43,3.59,0.67c0.04,0,0.09,0.01,0.13,0.02
					c6.45,1.21,13.35,2.63,20.51,4.29c8.3,1.91,16.97,4.15,25.72,6.74c48.18,14.24,98.75,39.11,104.5,80.4
					C2012.64,1090.83,1912.53,1113.14,1884.06,1111.31z"/>
				<path class="st8" d="M1764.13,914.78l1.57,11.36c0.52,3.76,3.77,6.99,7.94,5.44l19.38-5.24l-37.98,38.9l-26.68-14.23l14.97-8.52
					c2.56-1.64,5.38-2.85,5.85-5.85l3.84-16.81L1764.13,914.78z"/>
				<g>
					<path class="st8" d="M1738.18,901.61c0,0-3.85,4.34-1.68,12.01c2.17,7.68,6.82,15.28,15.16,15.92
						c8.34,0.64,13.71-13.32,11.84-23.36C1761.63,896.15,1738.18,901.61,1738.18,901.61z"/>
					<path class="st13" d="M1765.3,908.46c2.91-6.26,4.37-9.39,3.29-13.11c-1.66-5.72-8.09-9.22-13.43-9.41
						c-5.56-0.2-10.23,3.15-11.79,4.43c-3.04,2.46-3.26,4.27-6.42,5.54c-3.21,1.29-4.84,0.17-7.17,1.86
						c-1.75,1.27-3.29,3.68-2.99,6.07c0.41,3.29,4.26,6.1,7.74,6.2c5.21,0.15,6.45-5.82,14.48-7.79c0.99-0.24,6.19-1.53,7.65,0.59
						c1.5,2.19-2.49,6.08-0.67,9.57c0.77,1.47,2.43,2.62,3.96,2.54C1762.3,914.82,1763.78,911.73,1765.3,908.46z"/>
					<path class="st8" d="M1762.11,916.23c0,0-0.41-8.14,3.96-7.93C1770.45,908.52,1768.15,915.23,1762.11,916.23z"/>
				</g>
			</g>
			<path class="st7" d="M1839,1107.03c0,1.64-1.33,2.97-2.97,2.97h-146.06c-1.64,0-2.97-1.33-2.97-2.97v-0.06
				c0-1.64,1.33-2.97,2.97-2.97h146.06c1.64,0,2.97,1.33,2.97,2.97V1107.03z"/>
		</g>
		<g>
			<g>
				<path class="st7" d="M280.36,1297.54c-14.37-18.09-22.57-31.97-26.32-37.84c-19.7-30.83-45.74-42.85-52.1-45.52
					c-15.95-6.69-24.81-3.62-25.16-7.5c-0.62-6.98,27.84-28.56,59.63-25.89c43.13,3.62,71.8,49.33,74.15,53.2
					c23.35,38.45,29.51,93.23,15.2,96.94c-5.54,1.44-14.67-5.32-24.13-12.34C291.1,1310.77,284.45,1302.68,280.36,1297.54z"/>
				<g>
					<path class="st4" d="M355.93,1372.99c0,0-77.58,7.34-112.15-41.45c-34.57-48.79,46.38-18.54,46.38-18.54L355.93,1372.99z"/>
				</g>
				<path class="st7" d="M219.58,1285.99c-10.92,12.29-21.85,24.58-32.77,36.87c14.98,16.08,32.16,27.61,51.43,28.92
					c18.3,1.24,27.01-7.5,46.89-7.95c15.75-0.36,33.85,4.6,54.01,19.62c-10.34-18.67-20.36-32.73-28.3-42.76
					c-5.77-7.28-14.02-17.6-26.22-28.19c-15.16-13.17-24.55-21.31-37.31-20.96C235.8,1271.85,226.29,1278.94,219.58,1285.99z"/>
				<g>
					<path class="st4" d="M352.93,1371.07c-31.77-16.42-54.65-35.63-69.83-50.37c-14.9-14.47-22.42-24.67-35.8-28.19
						c-23.33-6.15-45.4,13.02-60.5,30.36c1.63-4.62,22.16-60.3,64.03-67.23c37-6.12,74.74,28.45,89.24,85.31
						C344.36,1350.98,348.65,1361.02,352.93,1371.07z"/>
				</g>
				<path class="st7" d="M352.93,1371.07c-9.7-24.58-23.66-67.72-26.97-124.71c-5.04-86.86,17.77-152.49,27.98-178.2
					c8.99,16.72,21.15,43.83,26.83,79.59c2.13,13.38,3.56,29.3,2.92,51.98C381.79,1267.18,363.21,1336.58,352.93,1371.07z"/>
				<path class="st7" d="M396.18,1270.24c0.8,10.52,37.53,15.41,110.19,14.68c-12.03-17.71-24.05-35.42-36.08-53.13
					C420.21,1248.58,395.5,1261.4,396.18,1270.24z"/>
				<path class="st7" d="M354.31,1368.53c-0.66,1.62-1.23,3.09-1.7,4.36c19.83,1.96,47.47-0.27,77.64-19.53
					c8.96-5.72,17.03-12.23,24.2-18.94c-2.14-2.25-11.84-12.11-25.52-17.14c-5.29,0.18-10.42,2.07-15.3,7.08
					C395.26,1344.18,375.81,1364.95,354.31,1368.53z"/>
				<path class="st4" d="M376.12,1321.18c-9.7,6.92-14.72,17.98-16.13,21.33c-4.5,10.64-5.45,20.79-5.68,26.02
					c15.25,3.59,25.45-1.58,31.9-6.89c8.88-7.3,13.22-16.93,28.57-31.95c5.92-5.79,10.93-9.9,14.15-12.4
					c-10.66-1.65-19.64-1.86-26.28-1.68C389.66,1315.98,383.03,1316.26,376.12,1321.18z"/>
				<g>
					<path class="st4" d="M352.79,1372.99c-3.76-6.23-11.04-20.05-13.65-40.53c-3.75-29.4,4.71-52.25,7.31-58.72
						c10.63-11.08,26.45-24.84,47.29-34.26c32.65-14.75,60.96-11.32,76.54-7.69c-18.59,10.35-46.26,29.56-73.62,65.02
						C375.79,1323.86,361.81,1351.66,352.79,1372.99z"/>
				</g>
				<g>
					<path class="st4" d="M352.6,1372.99c-9.44-27.55-25.53-83.85-24.37-158.08c1.06-68.22,16.18-119.81,25.71-146.76
						c-8.56,7.74-20.36,20.17-31.76,39.04c-3.74,6.19-12.84,21.24-18.15,38.32c-10.57,34-3.81,68.64,3.19,102.74
						C313.24,1277.6,325.61,1323.72,352.6,1372.99z"/>
				</g>
				<g>
					<path class="st4" d="M322.54,1313c-10.58-43.86-50.23-111.54-80.39-122.02c-30.56-10.63-55.6,4.59-59.4,7
						c4.66-6.52,15.2-19.54,32.12-26.45c23.53-9.6,62.63-8.08,85.53,21.75C327.74,1228.9,324,1309.2,322.54,1313z"/>
				</g>
			</g>
		</g>
		<g>
			<g>
				<path class="st7" d="M2169.39,1294.92c18.39-18.32,29.25-32.38,34.22-38.38c26.43-31.93,58.02-44.4,65.59-47.13
					c18.77-6.76,27.89-3.44,28.94-7.45c1.9-7.26-26.45-31.6-64.77-30.04c-55.39,2.26-96.07,54.26-99.34,58.58
					c-31.97,42.15-39.87,97.4-21.59,99.58c6.92,0.82,18.37-6.3,30.2-13.67C2155.76,1308.25,2164.19,1300.11,2169.39,1294.92z"/>
				<g>
					<path class="st4" d="M2078.01,1376.42c0,0,115.24,3.91,153.32-49.85c38.09-53.76-80.86-16.26-80.86-16.26L2078.01,1376.42z"/>
				</g>
				<path class="st7" d="M2241.66,1289.4c12.47,12.12,24.84,24.15,37.11,36.08c-13.45,14.92-30.39,26.01-51.41,27.17
					c-20.8,1.15-31.66-8.06-55.69-8.87c-19.78-0.67-43.22,4.46-70.56,21.41c14-21.17,27.06-36.37,37.07-46.8
					c7.08-7.38,16.96-17.55,31.27-27.41c17.03-11.72,27.17-18.71,41.36-17.25C2223.3,1275.02,2234,1282.36,2241.66,1289.4z"/>
				<g>
					<path class="st4" d="M2081.31,1374.29c44.4-19.15,73.5-39.75,91.52-54.65c16.82-13.9,24.8-23.5,39.57-26.02
						c24.68-4.21,49.34,15.01,66.37,31.86c-2.14-4.38-28.37-56.59-72.99-66.87c-42.35-9.75-99.42,7.43-118.61,67.18
						C2081.1,1337,2087.52,1362.41,2081.31,1374.29z"/>
				</g>
				<path class="st7" d="M2078.65,1355.97c10.53-12.48,27.85-37.38,35.4-77.94c16.32-87.57-20.67-191.25-43.53-247.03
					c-18.97,36.61-40.41,87.45-44.8,142.3c-1.41,17.6-1.14,36.87,3.36,61.59C2039.75,1293.63,2066.7,1338.08,2078.65,1355.97z"/>
				<path class="st7" d="M1953.46,1220.48c-16.42,13.46-32.83,26.91-49.25,40.37c-1.08,0.89-1.59,2.3-1.31,3.67
					c0.27,1.37,1.28,2.48,2.62,2.89c72.14,21.78,129.15,13.76,133.16,3.22C2042.16,1261.5,2001.12,1253.87,1953.46,1220.48z"/>
				<path class="st7" d="M2079.79,1371.5c0.73,1.79,1.35,3.41,1.88,4.8c-21.85,2.16-52.3-0.29-85.55-21.52
					c-9.87-6.3-18.76-13.47-26.67-20.86c2.36-2.48,13.04-13.34,28.12-18.88c5.83,0.2,11.48,2.28,16.86,7.8
					C2034.67,1344.67,2056.1,1367.55,2079.79,1371.5z"/>
				<path class="st4" d="M2055.75,1319.33c10.69,7.62,16.22,19.82,17.78,23.5c4.96,11.72,6.01,22.91,6.26,28.67
					c-16.8,3.96-28.04-1.74-35.15-7.59c-9.78-8.04-14.57-18.66-31.48-35.21c-6.52-6.38-12.04-10.91-15.59-13.66
					c11.75-1.82,21.64-2.05,28.96-1.85C2040.84,1313.59,2048.15,1313.91,2055.75,1319.33z"/>
				<g>
					<path class="st4" d="M2081.47,1376.41c4.15-6.87,12.17-22.09,15.04-44.66c0-0.02,0.01-0.04,0.01-0.06
						c4.96-39.04-14.24-77.19-48.54-96.49c-3.71-2.09-7.59-4.07-11.64-5.9c-35.97-16.25-67.18-12.47-84.34-8.47
						c20.48,11.41,50.97,32.57,81.12,71.64C2056.12,1322.27,2071.52,1352.91,2081.47,1376.41z"/>
				</g>
				<g>
					<path class="st4" d="M2081.65,1376.42c10.75-14.81,29.08-49.55,32.48-111.81c4.47-81.89-21.19-172-43.6-233.6
						c20.78,19.44,49.33,48.07,71.17,86.33c6.54,11.46,21.34,37.37,27.19,63.68c9.99,44.92-8.36,82.46-24.08,113.61
						C2133.1,1317.8,2113.92,1348.85,2081.65,1376.42z"/>
				</g>
				<g>
					<path class="st4" d="M2133.33,1276.58c15.34-46.74,52.77-82.29,91.75-93.27c38.13-10.74,64.26,6.78,68.05,9.43
						c-4.05-7.08-13.78-21.7-32.46-30.32c-27.37-12.64-78.32-13.5-111.32,21.47C2110.66,1224.89,2131.56,1272.76,2133.33,1276.58z"
						/>
				</g>
			</g>
		</g>
		<g>
			<path class="st4" d="M660.75,654.37c-17.3,12.31-22.15,23.54-22.99,32.03c-1.51,15.36,9.66,26.06,4.22,37.68
				c-3.35,7.16-11.15,10.71-17.53,12.6l11.24,11.4l30.49-18.48C665.36,704.82,661.58,679.15,660.75,654.37z"/>
			<g>
				<path class="st10" d="M930.62,755.24c0.98,5.86-2.98,11.41-8.84,12.39L689.95,806.4c-5.86,0.98-11.41-2.98-12.39-8.84
					l-27.35-163.52c-0.98-5.86,2.98-11.41,8.84-12.39l231.84-38.77c5.86-0.98,11.41,2.98,12.39,8.84L930.62,755.24z"/>
				<g>
					<g>
						<path class="st0" d="M912.13,745.18c1.18,7.08-3.6,13.78-10.68,14.97l-200.48,33.53c-7.08,1.18-13.78-3.6-14.97-10.68
							l-22.59-135.05c-1.18-7.08,3.6-13.78,10.68-14.97l200.48-33.53c7.08-1.18,13.78,3.6,14.97,10.68L912.13,745.18z M885.6,610.21
							c-0.78-4.64-5.17-7.77-9.81-7l-200.66,33.56c-4.64,0.78-7.77,5.17-7,9.81l22.62,135.23c0.78,4.64,5.17,7.77,9.81,7
							l200.66-33.56c4.64-0.78,7.77-5.17,7-9.81L885.6,610.21z"/>
					</g>
					<g>
						<path class="st0" d="M903.48,711.57l-47.52-25.38c-4.07-2.17-9.06-1.51-12.42,1.64l-31.71,29.69
							c-5.25,4.91-13.06,5.51-19,1.47l-49.44-33.69c-4.56-3.11-10.7-2.28-14.27,1.94l-45.58,53.79l-3.42-2.9l45.58-53.79
							c5.06-5.97,13.75-7.15,20.21-2.74l49.44,33.69c4.19,2.86,9.71,2.43,13.41-1.04l31.71-29.69c4.77-4.46,11.84-5.39,17.6-2.32
							l47.52,25.38L903.48,711.57z"/>
					</g>
					<g>
						<path class="st0" d="M831.18,667.77c-11.22,1.88-21.87-5.72-23.74-16.94c-1.88-11.22,5.72-21.87,16.94-23.74
							c11.22-1.88,21.87,5.72,23.74,16.94C849.99,655.24,842.39,665.89,831.18,667.77z M825.11,631.51
							c-8.78,1.47-14.72,9.8-13.26,18.58c1.47,8.78,9.8,14.72,18.58,13.26c8.78-1.47,14.72-9.8,13.26-18.58
							C842.22,635.99,833.89,630.04,825.11,631.51z"/>
					</g>
				</g>
			</g>
			<path class="st4" d="M916.99,810c0,0-32.58-36.12-21.93-37.9c10.65-1.78,26.82-3.08,29.73-18.68
				c2.91-15.61-1.75-43.45-1.75-43.45s36.22,24.71,21.91,50.02c-14.31,25.3-24.92,17.09-16.69,33.88
				C936.5,810.65,916.99,810,916.99,810z"/>
			<path class="st8" d="M1017.35,887.93c-5.76,55.45-69.47,83.78-86.11,91.19c-43.69,19.42-61.61,5.69-101.38,23.35
				c-36.81,16.34-56.01,43.44-86.75,88.64c-20.64,30.36-37.52,55.68-51.43,76.83c-64.88,98.66-65.44,106.91-84.97,114.86
				c-93.34,37.98-221.68-93.02-263.48-135.68c-11.71-11.95-28.92-29.76-42.06-48.85c-14.27-20.75-23.74-43.03-16.1-60.99
				c6.18-14.5,21.37-21.2,32.31-25.84c40.58-17.25,69.35-1.17,131.38,7.17c45.81,6.18,121.35,15.4,163.68-25.12
				c6.75-6.46,18.05-17.28,16.14-29.08c-4.15-25.53-63.91-18.24-103-59.94c-19.54-20.84-30.14-49.88-29.75-75.43
				c0.75-50.17,44.03-98.51,107.68-120.15c3.45,3.45,47.9,35.9,51.35,39.36c-7.21,7.3-98.58,30.71-84.85,85.51
				c14.25,56.89,87.33,75.39,136.52,87.85c67.77,17.17,204,29.64,237.98-39.57c5.52-11.26,0.07-21.01-48.99-68.11
				c3.6-2.45,49.6-30.62,53.2-33.07C993.62,805.1,1021.56,847.48,1017.35,887.93z"/>
			<path class="st14" d="M668.24,1094.93c-19.1-17.85-45.83-25.05-71.31-19.19c-57.74,13.27-52.41-40.53-108.23-13.06
				c-35.08,17.26-65.61,10.37-85.35,1.28c-23.34-10.75-50.47-9.4-72.64,3.59c-12.67,7.42-22.81,18.12-29.55,30.71
				c13.14,19.09,30.35,36.9,42.06,48.85c41.79,42.66,170.13,173.66,263.48,135.68c19.53-7.94,20.1-16.19,84.97-114.86
				c0.19-1.06,0.37-2.11,0.54-3.15C696.35,1138.97,687.34,1112.78,668.24,1094.93z"/>
			<g>
				<g>
					<path class="st8" d="M429.43,1279.74c-15.62,18.03-45.09,49.89-80.88,75.16c-14.35,10.13-29.96,19.37-49.63,18.28
						c-9.21-0.51-16.66-3.15-21.61-5.37c37.95-42.58,75.9-85.16,113.85-127.73C403.91,1253.3,416.67,1266.52,429.43,1279.74z"/>
					<path class="st14" d="M396.53,1250.42l-105.57,118.44c-0.57,0.64-0.52,1.62,0.13,2.2c0.64,0.57,1.62,0.52,2.2-0.13
						l105.57-118.44c0.57-0.64,0.52-1.62-0.13-2.2C398.08,1249.72,397.1,1249.77,396.53,1250.42z"/>
					<path class="st14" d="M336.45,1348.11c-2.14-1.91-5.42-1.72-7.32,0.42c-1.91,2.14-1.72,5.42,0.42,7.32
						c2.14,1.91,5.42,1.72,7.32-0.42C338.78,1353.29,338.59,1350.01,336.45,1348.11z"/>
					<path class="st14" d="M359.8,1334.18c-2.14-1.91-5.42-1.72-7.32,0.42c-1.91,2.14-1.72,5.42,0.42,7.32s5.42,1.72,7.32-0.42
						C362.12,1339.37,361.93,1336.09,359.8,1334.18z"/>
				</g>
				<path class="st9" d="M414.59,1243.15c11.12,3.82,17.29,15.86,29.47,18.76c19.41,4.62,34.26-7.84,52.21-11.47
					c10.81-2.18,21.03,2.42,30.56,6.97c7.65,3.66,19.48,10.37,27.7,4.66c4.69-3.25-14.96-43.79-16.33-46.37
					c-7.78-14.71-33.05-62.31,5.98-109.79c26.8-11.26,59.73,4.45,86.53-6.81c7.21,92.45,6.93,160.12,5.56,202.3
					c-0.43,13.2-1.14,28.54-11.88,40.59c-16.32,18.32-46.58,18.72-154.02,2.74c-36.38-5.41-67.24-10.57-90.63-14.65
					C380,1316.48,399.45,1281.79,414.59,1243.15z"/>
			</g>
			<path class="st0" d="M563.63,1147.82c46.16,31.31,118.26,15.17,121.33-2.87c1.21-7.12-9.31-8.69-10.99-19.08
				c-3.51-21.74,38.87-37.6,87.84-83.1c26.5-24.62,53.56-50.43,49.5-79.45c-1.84-13.14-9.52-23.07-15.79-29.43
				c-30.87-3.11-61.74-6.22-92.61-9.33c-3.08,14.76-9.28,36.55-23.02,59.55c-23.14,38.73-58.19,65.07-80.42,81.5
				c-37.62,27.8-59.66,35.01-59.49,52.13C540.12,1131.88,555.34,1142.2,563.63,1147.82z"/>
			<path class="st10" d="M682.86,915.09c-3.68,4.64-3.8,12.23-0.89,16.92c5.09,8.18,17.39,4.22,32.05,8.01
				c26.25,6.8,24.87,29.39,48.28,36.61c21.48,6.63,51.1-3.62,55.55-20.37c2.73-10.25-4.24-21.89-11.55-28.42
				c-12.64-11.29-24.49-5.67-60.22-9.19C708.14,914.91,690.46,905.51,682.86,915.09z"/>
			<g>
				<path class="st4" d="M765.09,907.29L747,927.8c6.89,5.45,14.83,10.83,21.48,10.73l6.47-24.96L765.09,907.29z"/>
				<g>
					<path class="st4" d="M771.58,887.27c0,0,5.96,8.25,8.54,14.05c2.58,5.8,5.36,15.49-0.42,17.84
						c-8.77,3.57-16.78-8.24-16.78-8.24l-11.92-10.6C750.99,900.32,757.28,883.01,771.58,887.27z"/>
					<path class="st13" d="M765.09,907.29c-7.45-6.16-8.54-9.3-7.86-11.04c1.72-4.39,15.11-0.79,18.71-7.34
						c1.27-2.31,1.2-5.64-0.41-7.54c-4.51-5.34-22.35-0.89-30.84,10.16c-1.76,2.29-4.18,5.53-3.55,9.24
						c1.23,7.24,13.51,12.79,20.69,9.18C763.41,909.16,764.47,908.05,765.09,907.29z"/>
					<path class="st4" d="M766.79,908.45c0,0-7.32-3.63-10.3-0.02c-2.99,3.61,6.92,7.9,11.98,4.73L766.79,908.45z"/>
				</g>
			</g>
			<g>
				<path class="st8" d="M831.73,1316.7c23.86-0.22,67.24,0.78,109.87,10.9c17.09,4.05,34.35,9.64,46.55,25.11
					c5.71,7.24,8.66,14.57,10.28,19.75c-57.03-0.27-114.07-0.55-171.1-0.82C828.79,1353.33,830.26,1335.01,831.73,1316.7z"/>
				<path class="st14" d="M831.52,1360.77l158.66,0.76c0.86,0,1.56-0.69,1.56-1.55s-0.69-1.56-1.55-1.56l-158.66-0.76
					c-0.86,0-1.56,0.69-1.56,1.55S830.66,1360.77,831.52,1360.77z"/>
				<circle class="st14" cx="949.7" cy="1341.18" r="5.18"/>
				<path class="st14" d="M918.63,1332.87c-0.01,2.86,2.3,5.2,5.16,5.21c2.86,0.01,5.2-2.3,5.21-5.16c0.01-2.86-2.3-5.2-5.16-5.21
					C920.98,1327.7,918.65,1330.01,918.63,1332.87z"/>
			</g>
			<path class="st7" d="M897.79,1283.85c-22.79-67.16-7.97-96.33-29.48-119.19c-13.89-14.76-30.76-36.27-95.32-37.59
				c-37.39-0.76-209.42-49.26-231.01-17.74c-6.12,8.94-27.58,54.17,5.27,82.57c38.55,33.33,86.68,25.61,115.21,26.91
				c69.84,3.19,111.44-18.39,133.96,8.75c10.74,12.95,14.61,35.41,22.34,80.32c2.48,14.4,3.88,26.29,4.67,34.11
				c19.89-1.03,44.72-4.86,71.26-15.49c6.13-2.46,11.87-5.08,17.22-7.79C908.29,1311.06,902.94,1299.03,897.79,1283.85z"/>
		</g>
		<g>
			<path class="st1" d="M204.67,1376.89c99.09,46.87,177.71,55.83,231.53,55.2c37.85-0.44,65.81-1.01,190.33-12.36
				c141.77-12.92,179.41,6.54,341.11,9.89c217.53,4.5,194.11-29.8,383.13-24.72c248.06,6.67,263.85,65.08,422.68,34.61
				c96.1-18.44,151.55-51.57,242.24-34.61c36.78,6.88,81.03,16.3,143.37,7.42c48.22-6.87,86.31-22.82,111.23-35.43
				c-274.63-0.18-764.77-0.34-1039.4-0.34C962,1376.54,473.55,1376.71,204.67,1376.89z"/>
			<path class="st4" d="M2274.77,1377.83H196.36c-1.74,0-3.14-1.41-3.14-3.14s1.41-3.14,3.14-3.14h2078.41
				c1.74,0,3.14,1.41,3.14,3.14S2276.5,1377.83,2274.77,1377.83z"/>
		</g>
	</g>
</g>
</svg>
